<?xml version="1.0" standalone="no"?>
<svg xmlns:xlink="http://www.w3.org/1999/xlink" id="wave" style="transform:rotate(0deg); transition: 0.3s" viewBox="0 0 1440 360" version="1.1" xmlns="http://www.w3.org/2000/svg"><defs><linearGradient id="sw-gradient-0" x1="0" x2="0" y1="1" y2="0"><stop stop-color="rgba(243, 106, 62, 1)" offset="0%"/><stop stop-color="rgba(255, 179, 11, 1)" offset="100%"/></linearGradient></defs><path style="transform:translate(0, 0px); opacity:1" fill="url(#sw-gradient-0)" d="M0,216L18.5,192C36.9,168,74,120,111,114C147.7,108,185,144,222,168C258.5,192,295,204,332,216C369.2,228,406,240,443,216C480,192,517,132,554,126C590.8,120,628,168,665,204C701.5,240,738,264,775,234C812.3,204,849,120,886,126C923.1,132,960,228,997,252C1033.8,276,1071,228,1108,174C1144.6,120,1182,60,1218,72C1255.4,84,1292,168,1329,216C1366.2,264,1403,276,1440,234C1476.9,192,1514,96,1551,90C1587.7,84,1625,168,1662,180C1698.5,192,1735,132,1772,90C1809.2,48,1846,24,1883,66C1920,108,1957,216,1994,222C2030.8,228,2068,132,2105,114C2141.5,96,2178,156,2215,168C2252.3,180,2289,144,2326,108C2363.1,72,2400,36,2437,42C2473.8,48,2511,96,2548,120C2584.6,144,2622,144,2640,144L2658.5,144L2658.5,360L2640,360C2621.5,360,2585,360,2548,360C2510.8,360,2474,360,2437,360C2400,360,2363,360,2326,360C2289.2,360,2252,360,2215,360C2178.5,360,2142,360,2105,360C2067.7,360,2031,360,1994,360C1956.9,360,1920,360,1883,360C1846.2,360,1809,360,1772,360C1735.4,360,1698,360,1662,360C1624.6,360,1588,360,1551,360C1513.8,360,1477,360,1440,360C1403.1,360,1366,360,1329,360C1292.3,360,1255,360,1218,360C1181.5,360,1145,360,1108,360C1070.8,360,1034,360,997,360C960,360,923,360,886,360C849.2,360,812,360,775,360C738.5,360,702,360,665,360C627.7,360,591,360,554,360C516.9,360,480,360,443,360C406.2,360,369,360,332,360C295.4,360,258,360,222,360C184.6,360,148,360,111,360C73.8,360,37,360,18,360L0,360Z"/></svg>