<?xml version="1.0" standalone="no"?>
<svg xmlns:xlink="http://www.w3.org/1999/xlink" id="wave" style="transform:rotate(0deg); transition: 0.3s" viewBox="0 0 1440 490" version="1.1" xmlns="http://www.w3.org/2000/svg"><defs><linearGradient id="sw-gradient-0" x1="0" x2="0" y1="1" y2="0"><stop stop-color="rgba(255, 255, 255, 1)" offset="0%"/><stop stop-color="rgba(218.496, 218.496, 218.496, 1)" offset="100%"/></linearGradient></defs><path style="transform:translate(0, 0px); opacity:1" fill="url(#sw-gradient-0)" d="M0,441L480,392L960,245L1440,294L1920,147L2400,147L2880,196L3360,343L3840,0L4320,196L4800,0L5280,196L5760,343L6240,343L6720,294L7200,147L7680,147L8160,98L8640,147L9120,49L9600,98L10080,98L10560,392L11040,294L11520,49L11520,490L11040,490L10560,490L10080,490L9600,490L9120,490L8640,490L8160,490L7680,490L7200,490L6720,490L6240,490L5760,490L5280,490L4800,490L4320,490L3840,490L3360,490L2880,490L2400,490L1920,490L1440,490L960,490L480,490L0,490Z"/><defs><linearGradient id="sw-gradient-1" x1="0" x2="0" y1="1" y2="0"><stop stop-color="rgba(182.067, 182.067, 182.067, 1)" offset="0%"/><stop stop-color="rgba(193.451, 167.746, 110.926, 1)" offset="100%"/></linearGradient></defs><path style="transform:translate(0, 50px); opacity:0.9" fill="url(#sw-gradient-1)" d="M0,196L480,294L960,245L1440,147L1920,98L2400,392L2880,441L3360,147L3840,294L4320,196L4800,294L5280,343L5760,147L6240,147L6720,343L7200,294L7680,196L8160,49L8640,441L9120,392L9600,0L10080,0L10560,392L11040,0L11520,98L11520,490L11040,490L10560,490L10080,490L9600,490L9120,490L8640,490L8160,490L7680,490L7200,490L6720,490L6240,490L5760,490L5280,490L4800,490L4320,490L3840,490L3360,490L2880,490L2400,490L1920,490L1440,490L960,490L480,490L0,490Z"/><defs><linearGradient id="sw-gradient-2" x1="0" x2="0" y1="1" y2="0"><stop stop-color="rgba(179.79, 179.79, 179.79, 1)" offset="0%"/><stop stop-color="rgba(255, 0, 0, 1)" offset="100%"/></linearGradient></defs><path style="transform:translate(0, 100px); opacity:0.8" fill="url(#sw-gradient-2)" d="M0,49L480,196L960,392L1440,98L1920,0L2400,294L2880,441L3360,294L3840,196L4320,392L4800,98L5280,392L5760,147L6240,392L6720,392L7200,0L7680,392L8160,0L8640,147L9120,294L9600,245L10080,392L10560,147L11040,294L11520,245L11520,490L11040,490L10560,490L10080,490L9600,490L9120,490L8640,490L8160,490L7680,490L7200,490L6720,490L6240,490L5760,490L5280,490L4800,490L4320,490L3840,490L3360,490L2880,490L2400,490L1920,490L1440,490L960,490L480,490L0,490Z"/></svg>